<mxfile host="app.diagrams.net" agent="Mozilla/5.0 (Windows NT 10.0; Win64; x64) AppleWebKit/537.36 (KHTML, like Gecko) Chrome/131.0.0.0 Safari/537.36" version="24.8.6">
  <diagram name="Page-1" id="5xaO6sBHIMkDrj73qSf8">
    <mxGraphModel dx="1050" dy="522" grid="1" gridSize="10" guides="1" tooltips="1" connect="1" arrows="1" fold="1" page="1" pageScale="1" pageWidth="850" pageHeight="1100" math="0" shadow="0">
      <root>
        <mxCell id="0" />
        <mxCell id="1" parent="0" />
        <mxCell id="Qh-1Wuhp9E0ZccYFBDSJ-2" style="edgeStyle=orthogonalEdgeStyle;rounded=0;orthogonalLoop=1;jettySize=auto;html=1;" edge="1" parent="1" source="Qh-1Wuhp9E0ZccYFBDSJ-1">
          <mxGeometry relative="1" as="geometry">
            <mxPoint x="400" y="120" as="targetPoint" />
          </mxGeometry>
        </mxCell>
        <mxCell id="Qh-1Wuhp9E0ZccYFBDSJ-1" value="Bắt đầu" style="ellipse;whiteSpace=wrap;html=1;" vertex="1" parent="1">
          <mxGeometry x="340" width="120" height="80" as="geometry" />
        </mxCell>
        <mxCell id="Qh-1Wuhp9E0ZccYFBDSJ-4" style="edgeStyle=orthogonalEdgeStyle;rounded=0;orthogonalLoop=1;jettySize=auto;html=1;" edge="1" parent="1" source="Qh-1Wuhp9E0ZccYFBDSJ-3" target="Qh-1Wuhp9E0ZccYFBDSJ-5">
          <mxGeometry relative="1" as="geometry">
            <mxPoint x="400" y="240" as="targetPoint" />
          </mxGeometry>
        </mxCell>
        <mxCell id="Qh-1Wuhp9E0ZccYFBDSJ-3" value="Nhập giá trị a,b" style="shape=parallelogram;perimeter=parallelogramPerimeter;whiteSpace=wrap;html=1;fixedSize=1;" vertex="1" parent="1">
          <mxGeometry x="340" y="120" width="120" height="60" as="geometry" />
        </mxCell>
        <mxCell id="Qh-1Wuhp9E0ZccYFBDSJ-6" style="edgeStyle=orthogonalEdgeStyle;rounded=0;orthogonalLoop=1;jettySize=auto;html=1;exitX=0;exitY=0.5;exitDx=0;exitDy=0;" edge="1" parent="1" source="Qh-1Wuhp9E0ZccYFBDSJ-5">
          <mxGeometry relative="1" as="geometry">
            <mxPoint x="280" y="290" as="targetPoint" />
            <mxPoint x="335" y="250" as="sourcePoint" />
            <Array as="points">
              <mxPoint x="281" y="250" />
            </Array>
          </mxGeometry>
        </mxCell>
        <mxCell id="Qh-1Wuhp9E0ZccYFBDSJ-10" value="Sai" style="edgeLabel;html=1;align=center;verticalAlign=middle;resizable=0;points=[];" vertex="1" connectable="0" parent="Qh-1Wuhp9E0ZccYFBDSJ-6">
          <mxGeometry x="-0.336" y="-3" relative="1" as="geometry">
            <mxPoint y="-5" as="offset" />
          </mxGeometry>
        </mxCell>
        <mxCell id="Qh-1Wuhp9E0ZccYFBDSJ-7" style="edgeStyle=orthogonalEdgeStyle;rounded=0;orthogonalLoop=1;jettySize=auto;html=1;" edge="1" parent="1" source="Qh-1Wuhp9E0ZccYFBDSJ-5">
          <mxGeometry relative="1" as="geometry">
            <mxPoint x="580" y="290" as="targetPoint" />
          </mxGeometry>
        </mxCell>
        <mxCell id="Qh-1Wuhp9E0ZccYFBDSJ-11" value="Đúng" style="edgeLabel;html=1;align=center;verticalAlign=middle;resizable=0;points=[];" vertex="1" connectable="0" parent="Qh-1Wuhp9E0ZccYFBDSJ-7">
          <mxGeometry x="-0.2479" y="1" relative="1" as="geometry">
            <mxPoint y="-8" as="offset" />
          </mxGeometry>
        </mxCell>
        <mxCell id="Qh-1Wuhp9E0ZccYFBDSJ-5" value="a = 0" style="rhombus;whiteSpace=wrap;html=1;" vertex="1" parent="1">
          <mxGeometry x="342.5" y="220" width="115" height="60" as="geometry" />
        </mxCell>
        <mxCell id="Qh-1Wuhp9E0ZccYFBDSJ-15" style="edgeStyle=orthogonalEdgeStyle;rounded=0;orthogonalLoop=1;jettySize=auto;html=1;" edge="1" parent="1" source="Qh-1Wuhp9E0ZccYFBDSJ-9" target="Qh-1Wuhp9E0ZccYFBDSJ-16">
          <mxGeometry relative="1" as="geometry">
            <mxPoint x="280" y="400" as="targetPoint" />
          </mxGeometry>
        </mxCell>
        <mxCell id="Qh-1Wuhp9E0ZccYFBDSJ-9" value="x = -b / a" style="rounded=0;whiteSpace=wrap;html=1;" vertex="1" parent="1">
          <mxGeometry x="220" y="290" width="120" height="60" as="geometry" />
        </mxCell>
        <mxCell id="Qh-1Wuhp9E0ZccYFBDSJ-13" style="edgeStyle=orthogonalEdgeStyle;rounded=0;orthogonalLoop=1;jettySize=auto;html=1;" edge="1" parent="1" source="Qh-1Wuhp9E0ZccYFBDSJ-12">
          <mxGeometry relative="1" as="geometry">
            <mxPoint x="700" y="390" as="targetPoint" />
          </mxGeometry>
        </mxCell>
        <mxCell id="Qh-1Wuhp9E0ZccYFBDSJ-18" value="Đúng" style="edgeLabel;html=1;align=center;verticalAlign=middle;resizable=0;points=[];" vertex="1" connectable="0" parent="Qh-1Wuhp9E0ZccYFBDSJ-13">
          <mxGeometry x="-0.334" relative="1" as="geometry">
            <mxPoint y="-10" as="offset" />
          </mxGeometry>
        </mxCell>
        <mxCell id="Qh-1Wuhp9E0ZccYFBDSJ-14" style="edgeStyle=orthogonalEdgeStyle;rounded=0;orthogonalLoop=1;jettySize=auto;html=1;entryX=0.5;entryY=0;entryDx=0;entryDy=0;" edge="1" parent="1" source="Qh-1Wuhp9E0ZccYFBDSJ-12" target="Qh-1Wuhp9E0ZccYFBDSJ-19">
          <mxGeometry relative="1" as="geometry">
            <mxPoint x="460" y="380" as="targetPoint" />
            <Array as="points">
              <mxPoint x="460" y="320" />
            </Array>
          </mxGeometry>
        </mxCell>
        <mxCell id="Qh-1Wuhp9E0ZccYFBDSJ-17" value="Sai" style="edgeLabel;html=1;align=center;verticalAlign=middle;resizable=0;points=[];" vertex="1" connectable="0" parent="Qh-1Wuhp9E0ZccYFBDSJ-14">
          <mxGeometry x="-0.3936" y="-3" relative="1" as="geometry">
            <mxPoint y="-5" as="offset" />
          </mxGeometry>
        </mxCell>
        <mxCell id="Qh-1Wuhp9E0ZccYFBDSJ-12" value="b = 0" style="rhombus;whiteSpace=wrap;html=1;" vertex="1" parent="1">
          <mxGeometry x="520" y="290" width="120" height="60" as="geometry" />
        </mxCell>
        <mxCell id="Qh-1Wuhp9E0ZccYFBDSJ-21" style="edgeStyle=orthogonalEdgeStyle;rounded=0;orthogonalLoop=1;jettySize=auto;html=1;" edge="1" parent="1">
          <mxGeometry relative="1" as="geometry">
            <mxPoint x="459" y="560" as="targetPoint" />
            <mxPoint x="279" y="450" as="sourcePoint" />
            <Array as="points">
              <mxPoint x="279" y="500" />
              <mxPoint x="460" y="500" />
            </Array>
          </mxGeometry>
        </mxCell>
        <mxCell id="Qh-1Wuhp9E0ZccYFBDSJ-16" value="Thông báo giá trị&amp;nbsp;&lt;div&gt;của x&lt;/div&gt;" style="shape=parallelogram;perimeter=parallelogramPerimeter;whiteSpace=wrap;html=1;fixedSize=1;" vertex="1" parent="1">
          <mxGeometry x="220" y="390" width="120" height="60" as="geometry" />
        </mxCell>
        <mxCell id="Qh-1Wuhp9E0ZccYFBDSJ-22" style="edgeStyle=orthogonalEdgeStyle;rounded=0;orthogonalLoop=1;jettySize=auto;html=1;endArrow=none;endFill=0;" edge="1" parent="1" source="Qh-1Wuhp9E0ZccYFBDSJ-19">
          <mxGeometry relative="1" as="geometry">
            <mxPoint x="460" y="500" as="targetPoint" />
          </mxGeometry>
        </mxCell>
        <mxCell id="Qh-1Wuhp9E0ZccYFBDSJ-19" value="Thông báo&amp;nbsp;&lt;div&gt;phương trình&lt;/div&gt;&lt;div&gt;vô nghiệm&lt;/div&gt;" style="shape=parallelogram;perimeter=parallelogramPerimeter;whiteSpace=wrap;html=1;fixedSize=1;" vertex="1" parent="1">
          <mxGeometry x="400" y="390" width="120" height="60" as="geometry" />
        </mxCell>
        <mxCell id="Qh-1Wuhp9E0ZccYFBDSJ-23" style="edgeStyle=orthogonalEdgeStyle;rounded=0;orthogonalLoop=1;jettySize=auto;html=1;exitX=0.5;exitY=1;exitDx=0;exitDy=0;endArrow=none;endFill=0;" edge="1" parent="1" source="Qh-1Wuhp9E0ZccYFBDSJ-20">
          <mxGeometry relative="1" as="geometry">
            <mxPoint x="460" y="500" as="targetPoint" />
            <mxPoint x="700" y="460" as="sourcePoint" />
            <Array as="points">
              <mxPoint x="700" y="500" />
              <mxPoint x="461" y="500" />
            </Array>
          </mxGeometry>
        </mxCell>
        <mxCell id="Qh-1Wuhp9E0ZccYFBDSJ-20" value="Thông báo&amp;nbsp;&lt;div&gt;phương trình&lt;/div&gt;&lt;div&gt;vô số nghiệm&lt;/div&gt;" style="shape=parallelogram;perimeter=parallelogramPerimeter;whiteSpace=wrap;html=1;fixedSize=1;" vertex="1" parent="1">
          <mxGeometry x="640" y="390" width="120" height="60" as="geometry" />
        </mxCell>
        <mxCell id="Qh-1Wuhp9E0ZccYFBDSJ-24" value="Kết thúc" style="ellipse;whiteSpace=wrap;html=1;" vertex="1" parent="1">
          <mxGeometry x="400" y="560" width="120" height="80" as="geometry" />
        </mxCell>
      </root>
    </mxGraphModel>
  </diagram>
</mxfile>
